<svg id="filled_outline" data-name="filled outline" xmlns="http://www.w3.org/2000/svg" viewBox="0 0 340 340"><path d="M243.937,141.734l-24.406,15.531a22.693,22.693,0,0,0-10.277,15.91l-8.967,62.314a19.444,19.444,0,0,1-5.6,11.079l-14.6,17.283V280.21H322.546l-5.528-103.864a22.654,22.654,0,0,0-10.4-17.885,298.317,298.317,0,0,0-31.172-17.489Z" style="fill:azure"/><polygon points="275.45 100.818 275.45 140.972 259.914 155.872 243.937 141.734 243.937 119.116 275.45 100.818" style="fill:#ffd1bd"/><rect x="10" y="125.288" width="163.469" height="103.679" rx="12.034" style="fill:#8095aa"/><path d="M103.562,263.851H79.907V173.863a8.84,8.84,0,0,1,8.84-8.84h5.975a8.84,8.84,0,0,1,8.84,8.84Z" style="fill:#4a617c"/><polygon points="293.357 238.413 225.718 256.976 222.451 280.21 293.357 280.21 293.357 238.413" style="fill:#c7e2ff"/><path d="M130.639,280.21H52.831v-6.7a9.653,9.653,0,0,1,9.653-9.654h58.5a9.654,9.654,0,0,1,9.654,9.654Z" style="fill:#4a617c"/><path d="M188.7,255.108a16.786,16.786,0,0,0-16.785,16.786v8.316h33.571v-8.316A16.786,16.786,0,0,0,188.7,255.108Z" style="fill:#ffd1bd"/><polygon points="275.45 136.929 275.45 100.818 243.937 119.116 243.937 132.092 275.45 136.929" style="fill:#fca490"/><path d="M228.532,25.925S202.779,29.7,201.447,58.559c0,0-.666,22.329,27.085,27.149L284.7,91.194s21.535-8.214,21.535-35.965c0,0,.15-22.063-19.854-35.48a47.153,47.153,0,0,0-31.558-7.594C246.189,13.141,235.75,16.486,228.532,25.925Z" style="fill:#565e68"/><path d="M230.53,44.129s2.314,33.791,42.239,42.79a4.29,4.29,0,0,0,4.878-2.316c2.152-6.147,10.694-6.4,13.558-.547,2.75,6.367,6.472,21.436-14.054,22.013-.947,9.052-12.256,25.945-33.351,20.048-6.426-1.888-15.639-6.578-20.054-18.209C220.145,94.744,216.424,64.852,230.53,44.129Z" style="fill:#ffd1bd"/><path d="M304.247,263.851H229.59a8.968,8.968,0,0,0-8.968,8.967v7.392h92.592v-7.392A8.967,8.967,0,0,0,304.247,263.851Z" style="fill:#4a617c"/><rect x="10" y="280.21" width="320" height="24.522" style="fill:#ffc998"/><rect x="33.213" y="304.732" width="273.575" height="23.421" style="fill:#f49d70"/><path d="M313.214,255.108a16.786,16.786,0,0,0-16.785,16.786v8.316H330v-8.316A16.786,16.786,0,0,0,313.214,255.108Z" style="fill:#ffd1bd"/><path d="M325.207,254.947l-4.195-78.814a26.711,26.711,0,0,0-12.234-21.042,307.768,307.768,0,0,0-29.328-16.624V112.582c.375-.968.679-1.87.909-2.658,13.35-1.245,17-10.252,17-15.178.13-9.084-3.437-19.352-13.612-18.9a10.976,10.976,0,0,0-9.76,7.125C237.8,75.626,234.433,44.912,234.52,43.845a4,4,0,0,0-7.194-2.111c-7.5,10.033-10.043,23.652-10.566,35.646a22.585,22.585,0,0,1-11.318-18.636c1.159-25.092,22.766-28.722,23.67-28.862a3.994,3.994,0,0,0,2.6-1.528c5.3-6.931,13.23-11.044,23.566-12.225,34.63-3.579,53.417,29.749,45,51.968-3.477-.492-5.857,4.058-3.382,6.634a29.968,29.968,0,0,0,8.933,6.464,4,4,0,0,0,1.674.369c4.164.086,5.557-5.917,1.678-7.633a19.269,19.269,0,0,1-2.1-1.14c11.81-27.127-10.163-68.824-52.714-64.61-11.826,1.35-21.5,6.228-28.074,14.137-6.185,1.521-27.582,8.754-28.844,36.122-.2,6.812,3.662,20.94,19.264,27.909.645,10.732.717,15.2,3.293,22.979,6.83,20.064,35.234,29.368,51.444,14.905v15.033l-11.645,11.168-11.868-10.5v-2.287c-.134-5.276-7.867-5.274-8,0v1.893l-22.554,14.353A26.661,26.661,0,0,0,205.3,172.605l-8.967,62.314a15.783,15.783,0,0,1-4.7,9.067l-6.263,7.415a20.8,20.8,0,0,0-17.455,20.493v4.317H134.639c.879-8.632-4.67-16.246-13.654-16.36H107.562V173.863a12.855,12.855,0,0,0-12.84-12.84H88.748a12.855,12.855,0,0,0-12.841,12.84v51.1H22.034A8.043,8.043,0,0,1,14,216.933V137.322a8.043,8.043,0,0,1,8.034-8.034h139.4a8.043,8.043,0,0,1,8.034,8.034v79.611a8.043,8.043,0,0,1-8.034,8.034H119.547c-5.28.124-5.265,7.877,0,8h41.888a16.052,16.052,0,0,0,16.034-16.034V137.322a16.052,16.052,0,0,0-16.034-16.034H22.034A16.052,16.052,0,0,0,6,137.322v79.611a16.052,16.052,0,0,0,16.034,16.034H75.907v26.884H62.484c-8.986.115-14.533,7.729-13.653,16.36H10a4,4,0,0,0-4,4v24.521a4,4,0,0,0,4,4H29.212v19.422a4,4,0,0,0,8,0V308.732H302.788v19.422a4,4,0,0,0,8,0V308.732H330a4,4,0,0,0,4-4V271.894A20.76,20.76,0,0,0,325.207,254.947ZM257.6,122.6a25.919,25.919,0,0,1-30.117-16.11c-3.045-11.222-5.458-31.576,1.536-51.406,6.583,16.243,16.217,28.868,42.868,35.74a8.273,8.273,0,0,0,9.248-4.237,5.17,5.17,0,0,0,.285-.66,3.049,3.049,0,0,1,2.8-2.093c4.617-.049,4.94,6.664,5.139,10.914,0,.3-.139,7.322-12.207,7.322-4.833.726-3.163,3.126-5.33,8.051A20.393,20.393,0,0,1,257.6,122.6ZM197.63,249.282a23.574,23.574,0,0,0,6.616-13.223l8.967-62.314a18.674,18.674,0,0,1,8.465-13.105l21.864-13.914,10.47,9.264-6.888,6.607-3.565-3.456c-3.833-3.593-9.283,2.019-5.568,5.743l6.334,6.141a4,4,0,0,0,5.553.016l10.146-9.731,11.12,9.839a4,4,0,0,0,5.468-.156l7.357-7.3c3.668-3.764-1.84-9.321-5.635-5.679l-4.7,4.66-7.821-6.921,10.39-9.965a299.438,299.438,0,0,1,28.258,16.042,18.694,18.694,0,0,1,8.559,14.728l3.987,74.914a20.8,20.8,0,0,0-20.706,8.379H265.887V177.127a4,4,0,0,0-8,0v82.724H230.458c-8.9.048-14.732,7.773-13.835,16.36h-7.139v-4.317A20.812,20.812,0,0,0,195.2,252.163Zm95.2,18.569c-.544,2.307-.382,5.955-.4,8.36H224.623v-2.525a5.842,5.842,0,0,1,5.835-5.835Zm-116.917,4.043c.6-16.925,24.973-16.915,25.571,0v4.317H175.913ZM56.831,273.5a5.659,5.659,0,0,1,5.653-5.653H79.907a4,4,0,0,0,4-4V173.863a4.846,4.846,0,0,1,4.841-4.84h5.974a4.845,4.845,0,0,1,4.84,4.84v85.988H95.09c-5.269.133-5.28,7.865,0,8h25.895a5.66,5.66,0,0,1,5.654,5.653v2.707H56.831ZM326,300.732H14V284.211H326Zm0-24.521H300.429v-4.317a12.786,12.786,0,1,1,25.571,0Z" style="fill:#2f313f"/><path d="M220.825,258.758a4.13,4.13,0,0,0,5.595-2.7,51,51,0,0,0,4.4-18.045l2.562-45.08a36.144,36.144,0,0,0-3.437-17.526c-2.332-4.688-9.4-1.372-7.224,3.437a28.11,28.11,0,0,1,2.673,13.636l-2.561,45.079a42.994,42.994,0,0,1-3.714,15.224A4.125,4.125,0,0,0,220.825,258.758Z" style="fill:#2f313f"/><path d="M293.992,241.322c.289,5.252,8.022,5.047,8-.243L300.707,198.9a53.425,53.425,0,0,1,2.173-16.8l.508-1.718c1.371-5.079-6.046-7.3-7.672-2.268a62.677,62.677,0,0,0-3.006,21.033Z" style="fill:#2f313f"/><path d="M235.49,88.264c-5.258.09-5.249,7.9,0,8C240.74,96.168,240.747,88.345,235.49,88.264Z" style="fill:#2f313f"/><path d="M252.84,88.264c-5.255.09-5.252,7.9,0,8C258.094,96.164,258.093,88.35,252.84,88.264Z" style="fill:#2f313f"/></svg>